<svg width="358" height="29" viewBox="0 0 358 29" fill="none" xmlns="http://www.w3.org/2000/svg">
<path d="M178.39 28.82L169.06 19.49L178.28 10.27L187.61 19.6L178.39 28.82ZM172.17 19.49L178.39 25.71L184.5 19.6L178.28 13.38L172.17 19.49Z" fill="url(#paint0_linear_0_1)"/>
<path d="M198.34 22.28L177.99 1.93L179.54 0.369995L198.34 19.17L216.86 0.649995L218.42 2.2L198.34 22.28Z" fill="url(#paint1_linear_0_1)"/>
<path d="M159.47 22.28L139.11 1.93L140.67 0.369995L159.47 19.17L177.99 0.649995L179.54 2.2L159.47 22.28Z" fill="url(#paint2_linear_0_1)"/>
<path d="M178.34 21.57L158.34 1.56997L159.19 0.719971L178.34 19.88L197.22 0.999971L198.06 1.84997L178.34 21.57Z" fill="url(#paint3_linear_0_1)"/>
<path d="M161.17 9.97998H29.9199V11.18H161.17V9.97998Z" fill="url(#paint4_linear_0_1)"/>
<path d="M26.92 9.97998H5V11.18H26.92V9.97998Z" fill="url(#paint5_linear_0_1)"/>
<path d="M320.75 9.38H195.5V10.58H320.75V9.38Z" fill="url(#paint6_linear_0_1)"/>
<path d="M348.67 9.38H323.75V10.58H348.67V9.38Z" fill="url(#paint7_linear_0_1)"/>
<path d="M357.67 0H0V2.2H357.67V0Z" fill="url(#paint8_linear_0_1)"/>
<defs>
<linearGradient id="paint0_linear_0_1" x1="209.82" y1="-8.53998" x2="160.49" y2="35.46" gradientUnits="userSpaceOnUse">
<stop stop-color="#BB7239"/>
<stop offset="0.23" stop-color="#FCEEAE"/>
<stop offset="0.52" stop-color="#E09E5B"/>
<stop offset="0.75" stop-color="#FCE9A4"/>
<stop offset="0.83" stop-color="#F1D693"/>
<stop offset="0.92" stop-color="#E1BD7C"/>
<stop offset="1" stop-color="#D08A4A"/>
</linearGradient>
<linearGradient id="paint1_linear_0_1" x1="210.44" y1="-7.85" x2="161.1" y2="36.15" gradientUnits="userSpaceOnUse">
<stop stop-color="#BB7239"/>
<stop offset="0.23" stop-color="#FCEEAE"/>
<stop offset="0.52" stop-color="#E09E5B"/>
<stop offset="0.75" stop-color="#FCE9A4"/>
<stop offset="0.83" stop-color="#F1D693"/>
<stop offset="0.92" stop-color="#E1BD7C"/>
<stop offset="1" stop-color="#D08A4A"/>
</linearGradient>
<linearGradient id="paint2_linear_0_1" x1="193.21" y1="-27.16" x2="143.88" y2="16.84" gradientUnits="userSpaceOnUse">
<stop stop-color="#BB7239"/>
<stop offset="0.23" stop-color="#FCEEAE"/>
<stop offset="0.52" stop-color="#E09E5B"/>
<stop offset="0.75" stop-color="#FCE9A4"/>
<stop offset="0.83" stop-color="#F1D693"/>
<stop offset="0.92" stop-color="#E1BD7C"/>
<stop offset="1" stop-color="#D08A4A"/>
</linearGradient>
<linearGradient id="paint3_linear_0_1" x1="174.48" y1="-2.01003" x2="184.82" y2="8.32997" gradientUnits="userSpaceOnUse">
<stop stop-color="#BB7239"/>
<stop offset="0.23" stop-color="#FCEEAE"/>
<stop offset="0.52" stop-color="#E09E5B"/>
<stop offset="0.75" stop-color="#FCE9A4"/>
<stop offset="0.83" stop-color="#F1D693"/>
<stop offset="0.92" stop-color="#E1BD7C"/>
<stop offset="1" stop-color="#D08A4A"/>
</linearGradient>
<linearGradient id="paint4_linear_0_1" x1="62.3899" y1="-30.56" x2="91.9799" y2="6.15996" gradientUnits="userSpaceOnUse">
<stop stop-color="#BB7239"/>
<stop offset="0.23" stop-color="#FCEEAE"/>
<stop offset="0.52" stop-color="#E09E5B"/>
<stop offset="0.75" stop-color="#FCE9A4"/>
<stop offset="0.83" stop-color="#F1D693"/>
<stop offset="0.92" stop-color="#E1BD7C"/>
<stop offset="1" stop-color="#D08A4A"/>
</linearGradient>
<linearGradient id="paint5_linear_0_1" x1="14.96" y1="9.33998" x2="55.44" y2="59.57" gradientUnits="userSpaceOnUse">
<stop stop-color="#BB7239"/>
<stop offset="0.23" stop-color="#FCEEAE"/>
<stop offset="0.52" stop-color="#E09E5B"/>
<stop offset="0.75" stop-color="#FCE9A4"/>
<stop offset="0.83" stop-color="#F1D693"/>
<stop offset="0.92" stop-color="#E1BD7C"/>
<stop offset="1" stop-color="#D08A4A"/>
</linearGradient>
<linearGradient id="paint6_linear_0_1" x1="302.21" y1="-29.54" x2="271.8" y2="-2.27998" gradientUnits="userSpaceOnUse">
<stop stop-color="#BB7239"/>
<stop offset="0.23" stop-color="#FCEEAE"/>
<stop offset="0.52" stop-color="#E09E5B"/>
<stop offset="0.75" stop-color="#FCE9A4"/>
<stop offset="0.83" stop-color="#F1D693"/>
<stop offset="0.92" stop-color="#E1BD7C"/>
<stop offset="1" stop-color="#D08A4A"/>
</linearGradient>
<linearGradient id="paint7_linear_0_1" x1="336.9" y1="9.36" x2="286.61" y2="54.45" gradientUnits="userSpaceOnUse">
<stop stop-color="#BB7239"/>
<stop offset="0.23" stop-color="#FCEEAE"/>
<stop offset="0.52" stop-color="#E09E5B"/>
<stop offset="0.75" stop-color="#FCE9A4"/>
<stop offset="0.83" stop-color="#F1D693"/>
<stop offset="0.92" stop-color="#E1BD7C"/>
<stop offset="1" stop-color="#D08A4A"/>
</linearGradient>
<linearGradient id="paint8_linear_0_1" x1="214.58" y1="-30.78" x2="135.59" y2="39.67" gradientUnits="userSpaceOnUse">
<stop stop-color="#BB7239"/>
<stop offset="0.23" stop-color="#FCEEAE"/>
<stop offset="0.52" stop-color="#E09E5B"/>
<stop offset="0.75" stop-color="#FCE9A4"/>
<stop offset="0.83" stop-color="#F1D693"/>
<stop offset="0.92" stop-color="#E1BD7C"/>
<stop offset="1" stop-color="#D08A4A"/>
</linearGradient>
</defs>
</svg>
