<svg width="29" height="234" viewBox="0 0 29 234" fill="none" xmlns="http://www.w3.org/2000/svg">
<path d="M16.3134 117.043L8.21319 125.292L0.0141598 116.943L8.1144 108.708L16.3134 117.043V117.043ZM8.21319 122.853L13.9285 117.043L8.1144 111.133L2.39907 116.943L8.21319 122.853V122.853Z" fill="url(#paint0_linear_0_1)"/>
<path d="M20.6881 116.986L20.6881 119.439L12.362 127.902L28.8871 144.701L28.8871 147.139L9.96301 127.902L20.6881 116.986Z" fill="url(#paint1_linear_0_1)"/>
<path d="M28.8871 86.8462L28.8871 89.2849L12.362 106.083L20.6881 114.547L20.6881 116.986L9.96301 106.083L28.8871 86.8462Z" fill="url(#paint2_linear_0_1)"/>
<path d="M27.3065 98.0212L27.3065 135.993L28.9999 135.993L28.9999 98.0212L27.3065 98.0212Z" fill="url(#paint3_linear_0_1)"/>
<path d="M28.9859 152.806L28.9859 234L25.8812 234L25.8812 154.111L8.02966 135.964L10.217 133.727L28.9859 152.806Z" fill="url(#paint4_linear_0_1)"/>
<path d="M28.9859 3.02748e-05L28.9859 81.1942L10.217 100.273L8.02966 98.0356L25.8812 79.8888L25.8812 3.04105e-05L28.9859 3.02748e-05Z" fill="url(#paint5_linear_0_1)"/>
<path d="M19.8273 0L19.8273 234L21.5207 234L21.5207 -7.40222e-08L19.8273 0Z" fill="url(#paint6_linear_0_1)"/>
<defs>
<linearGradient id="paint0_linear_0_1" x1="8.15674" y1="125.292" x2="8.15674" y2="108.708" gradientUnits="userSpaceOnUse">
<stop stop-color="#BB7239"/>
<stop offset="0.23" stop-color="#FCEEAE"/>
<stop offset="0.52" stop-color="#E09E5B"/>
<stop offset="0.75" stop-color="#FCE9A4"/>
<stop offset="0.83" stop-color="#F1D693"/>
<stop offset="0.92" stop-color="#E1BD7C"/>
<stop offset="1" stop-color="#D08A4A"/>
</linearGradient>
<linearGradient id="paint1_linear_0_1" x1="17.0613" y1="131.46" x2="3.29957" y2="130.419" gradientUnits="userSpaceOnUse">
<stop stop-color="#BB7239"/>
<stop offset="0.23" stop-color="#FCEEAE"/>
<stop offset="0.52" stop-color="#E09E5B"/>
<stop offset="0.75" stop-color="#FCE9A4"/>
<stop offset="0.83" stop-color="#F1D693"/>
<stop offset="0.92" stop-color="#E1BD7C"/>
<stop offset="1" stop-color="#D08A4A"/>
</linearGradient>
<linearGradient id="paint2_linear_0_1" x1="19.3333" y1="101.493" x2="5.57159" y2="100.451" gradientUnits="userSpaceOnUse">
<stop stop-color="#BB7239"/>
<stop offset="0.23" stop-color="#FCEEAE"/>
<stop offset="0.52" stop-color="#E09E5B"/>
<stop offset="0.75" stop-color="#FCE9A4"/>
<stop offset="0.83" stop-color="#F1D693"/>
<stop offset="0.92" stop-color="#E1BD7C"/>
<stop offset="1" stop-color="#D08A4A"/>
</linearGradient>
<linearGradient id="paint3_linear_0_1" x1="28.1532" y1="135.993" x2="28.1532" y2="98.0069" gradientUnits="userSpaceOnUse">
<stop stop-color="#BB7239"/>
<stop offset="0.23" stop-color="#FCEEAE"/>
<stop offset="0.52" stop-color="#E09E5B"/>
<stop offset="0.75" stop-color="#FCE9A4"/>
<stop offset="0.83" stop-color="#F1D693"/>
<stop offset="0.92" stop-color="#E1BD7C"/>
<stop offset="1" stop-color="#D08A4A"/>
</linearGradient>
<linearGradient id="paint4_linear_0_1" x1="2.65302" y1="188.855" x2="72.3279" y2="169.024" gradientUnits="userSpaceOnUse">
<stop stop-color="#BB7239"/>
<stop offset="0.23" stop-color="#FCEEAE"/>
<stop offset="0.52" stop-color="#E09E5B"/>
<stop offset="0.75" stop-color="#FCE9A4"/>
<stop offset="0.83" stop-color="#F1D693"/>
<stop offset="0.92" stop-color="#E1BD7C"/>
<stop offset="1" stop-color="#D08A4A"/>
</linearGradient>
<linearGradient id="paint5_linear_0_1" x1="-32.5845" y1="65.0271" x2="37.0904" y2="45.1953" gradientUnits="userSpaceOnUse">
<stop stop-color="#BB7239"/>
<stop offset="0.23" stop-color="#FCEEAE"/>
<stop offset="0.52" stop-color="#E09E5B"/>
<stop offset="0.75" stop-color="#FCE9A4"/>
<stop offset="0.83" stop-color="#F1D693"/>
<stop offset="0.92" stop-color="#E1BD7C"/>
<stop offset="1" stop-color="#D08A4A"/>
</linearGradient>
<linearGradient id="paint6_linear_0_1" x1="9.87836" y1="88.2808" x2="27.9131" y2="134.691" gradientUnits="userSpaceOnUse">
<stop stop-color="#BB7239"/>
<stop offset="0.23" stop-color="#FCEEAE"/>
<stop offset="0.52" stop-color="#E09E5B"/>
<stop offset="0.59" stop-color="#E9B876"/>
<stop offset="0.75" stop-color="#FCE9A4"/>
<stop offset="0.83" stop-color="#F1D693"/>
<stop offset="0.92" stop-color="#E1BD7C"/>
<stop offset="1" stop-color="#D08A4A"/>
</linearGradient>
</defs>
</svg>
