<svg width="99" height="8" viewBox="0 0 99 8" fill="none" xmlns="http://www.w3.org/2000/svg">
<path d="M49.4565 5.83934e-05L52.0303 2.58994L49.4868 5.14929L46.913 2.55941L49.4565 5.83934e-05ZM51.1723 2.58994L49.4565 0.863353L47.771 2.55941L49.4868 4.286L51.1723 2.58994Z" fill="url(#paint0_linear_0_1)"/>
<path d="M43.9531 1.81541L49.5669 7.4643L49.1393 7.89734L43.9531 2.67871L38.8442 7.81961L38.4138 7.38936L43.9531 1.81541Z" fill="url(#paint1_linear_0_1)"/>
<path d="M54.6757 1.81541L60.2922 7.4643L59.8619 7.89734L54.6757 2.67871L49.5668 7.81961L49.1392 7.38936L54.6757 1.81541Z" fill="url(#paint2_linear_0_1)"/>
<path d="M49.4701 2.01249L54.9873 7.56422L54.7528 7.80017L49.4701 2.48161L44.2618 7.72245L44.0301 7.4865L49.4701 2.01249Z" fill="url(#paint3_linear_0_1)"/>
<path d="M54.207 5.22961H90.4138V4.89651H54.207V5.22961Z" fill="url(#paint4_linear_0_1)"/>
<path d="M91.2412 5.22961H97.2881V4.89651H91.2412V5.22961Z" fill="url(#paint5_linear_0_1)"/>
<path d="M10.1847 5.39636H44.7363V5.06326H10.1847V5.39636Z" fill="url(#paint6_linear_0_1)"/>
<path d="M2.48271 5.39636H9.35718V5.06326H2.48271V5.39636Z" fill="url(#paint7_linear_0_1)"/>
<path d="M-4.57764e-05 8H98.6672V7.38931H-4.57764e-05V8Z" fill="url(#paint8_linear_0_1)"/>
<defs>
<linearGradient id="paint0_linear_0_1" x1="40.7862" y1="10.3707" x2="54.4695" y2="-1.75835" gradientUnits="userSpaceOnUse">
<stop stop-color="#BB7239"/>
<stop offset="0.23" stop-color="#FCEEAE"/>
<stop offset="0.52" stop-color="#E09E5B"/>
<stop offset="0.75" stop-color="#FCE9A4"/>
<stop offset="0.83" stop-color="#F1D693"/>
<stop offset="0.92" stop-color="#E1BD7C"/>
<stop offset="1" stop-color="#D08A4A"/>
</linearGradient>
<linearGradient id="paint1_linear_0_1" x1="40.6152" y1="10.1791" x2="54.3013" y2="-1.94993" gradientUnits="userSpaceOnUse">
<stop stop-color="#BB7239"/>
<stop offset="0.23" stop-color="#FCEEAE"/>
<stop offset="0.52" stop-color="#E09E5B"/>
<stop offset="0.75" stop-color="#FCE9A4"/>
<stop offset="0.83" stop-color="#F1D693"/>
<stop offset="0.92" stop-color="#E1BD7C"/>
<stop offset="1" stop-color="#D08A4A"/>
</linearGradient>
<linearGradient id="paint2_linear_0_1" x1="45.3681" y1="15.5393" x2="59.0515" y2="3.41026" gradientUnits="userSpaceOnUse">
<stop stop-color="#BB7239"/>
<stop offset="0.23" stop-color="#FCEEAE"/>
<stop offset="0.52" stop-color="#E09E5B"/>
<stop offset="0.75" stop-color="#FCE9A4"/>
<stop offset="0.83" stop-color="#F1D693"/>
<stop offset="0.92" stop-color="#E1BD7C"/>
<stop offset="1" stop-color="#D08A4A"/>
</linearGradient>
<linearGradient id="paint3_linear_0_1" x1="50.5349" y1="8.55798" x2="47.6647" y2="5.70563" gradientUnits="userSpaceOnUse">
<stop stop-color="#BB7239"/>
<stop offset="0.23" stop-color="#FCEEAE"/>
<stop offset="0.52" stop-color="#E09E5B"/>
<stop offset="0.75" stop-color="#FCE9A4"/>
<stop offset="0.83" stop-color="#F1D693"/>
<stop offset="0.92" stop-color="#E1BD7C"/>
<stop offset="1" stop-color="#D08A4A"/>
</linearGradient>
<linearGradient id="paint4_linear_0_1" x1="81.4566" y1="16.483" x2="73.2321" y2="6.34011" gradientUnits="userSpaceOnUse">
<stop stop-color="#BB7239"/>
<stop offset="0.23" stop-color="#FCEEAE"/>
<stop offset="0.52" stop-color="#E09E5B"/>
<stop offset="0.75" stop-color="#FCE9A4"/>
<stop offset="0.83" stop-color="#F1D693"/>
<stop offset="0.92" stop-color="#E1BD7C"/>
<stop offset="1" stop-color="#D08A4A"/>
</linearGradient>
<linearGradient id="paint5_linear_0_1" x1="94.5405" y1="5.40727" x2="83.2891" y2="-8.46736" gradientUnits="userSpaceOnUse">
<stop stop-color="#BB7239"/>
<stop offset="0.23" stop-color="#FCEEAE"/>
<stop offset="0.52" stop-color="#E09E5B"/>
<stop offset="0.75" stop-color="#FCE9A4"/>
<stop offset="0.83" stop-color="#F1D693"/>
<stop offset="0.92" stop-color="#E1BD7C"/>
<stop offset="1" stop-color="#D08A4A"/>
</linearGradient>
<linearGradient id="paint6_linear_0_1" x1="15.2992" y1="16.2" x2="23.7347" y2="8.68531" gradientUnits="userSpaceOnUse">
<stop stop-color="#BB7239"/>
<stop offset="0.23" stop-color="#FCEEAE"/>
<stop offset="0.52" stop-color="#E09E5B"/>
<stop offset="0.75" stop-color="#FCE9A4"/>
<stop offset="0.83" stop-color="#F1D693"/>
<stop offset="0.92" stop-color="#E1BD7C"/>
<stop offset="1" stop-color="#D08A4A"/>
</linearGradient>
<linearGradient id="paint7_linear_0_1" x1="5.7296" y1="5.40191" x2="19.6797" y2="-7.02801" gradientUnits="userSpaceOnUse">
<stop stop-color="#BB7239"/>
<stop offset="0.23" stop-color="#FCEEAE"/>
<stop offset="0.52" stop-color="#E09E5B"/>
<stop offset="0.75" stop-color="#FCE9A4"/>
<stop offset="0.83" stop-color="#F1D693"/>
<stop offset="0.92" stop-color="#E1BD7C"/>
<stop offset="1" stop-color="#D08A4A"/>
</linearGradient>
<linearGradient id="paint8_linear_0_1" x1="39.4729" y1="16.5441" x2="61.3835" y2="-2.87613" gradientUnits="userSpaceOnUse">
<stop stop-color="#BB7239"/>
<stop offset="0.23" stop-color="#FCEEAE"/>
<stop offset="0.52" stop-color="#E09E5B"/>
<stop offset="0.75" stop-color="#FCE9A4"/>
<stop offset="0.83" stop-color="#F1D693"/>
<stop offset="0.92" stop-color="#E1BD7C"/>
<stop offset="1" stop-color="#D08A4A"/>
</linearGradient>
</defs>
</svg>
