<svg width="100" height="8" viewBox="0 0 100 8" fill="none" xmlns="http://www.w3.org/2000/svg">
<path d="M49.877 7.99994L47.3032 5.41006L49.8467 2.85071L52.4204 5.44059L49.877 7.99994ZM48.1612 5.41006L49.877 7.13665L51.5625 5.44059L49.8467 3.714L48.1612 5.41006Z" fill="url(#paint0_linear_0_1)"/>
<path d="M55.3804 6.18459L49.7666 0.535696L50.1942 0.102661L55.3804 5.32129L60.4893 0.180385L60.9197 0.610645L55.3804 6.18459Z" fill="url(#paint1_linear_0_1)"/>
<path d="M44.6578 6.18459L39.0413 0.535696L39.4716 0.102661L44.6578 5.32129L49.7667 0.180385L50.1943 0.610645L44.6578 6.18459Z" fill="url(#paint2_linear_0_1)"/>
<path d="M49.8634 5.98751L44.3462 0.435778L44.5807 0.199829L49.8634 5.51839L55.0717 0.277553L55.3034 0.513502L49.8634 5.98751Z" fill="url(#paint3_linear_0_1)"/>
<path d="M45.1265 2.77039H8.91968V3.10349H45.1265V2.77039Z" fill="url(#paint4_linear_0_1)"/>
<path d="M8.09229 2.77039H2.04541V3.10349H8.09229V2.77039Z" fill="url(#paint5_linear_0_1)"/>
<path d="M96.8508 2.60364H89.9763V2.93674H96.8508V2.60364Z" fill="url(#paint6_linear_0_1)"/>
<path d="M99.3335 0H0.66626V0.610691H99.3335V0Z" fill="url(#paint7_linear_0_1)"/>
<defs>
<linearGradient id="paint0_linear_0_1" x1="58.5473" y1="-2.3707" x2="44.864" y2="9.75835" gradientUnits="userSpaceOnUse">
<stop stop-color="#BB7239"/>
<stop offset="0.23" stop-color="#FCEEAE"/>
<stop offset="0.52" stop-color="#E09E5B"/>
<stop offset="0.75" stop-color="#FCE9A4"/>
<stop offset="0.83" stop-color="#F1D693"/>
<stop offset="0.92" stop-color="#E1BD7C"/>
<stop offset="1" stop-color="#D08A4A"/>
</linearGradient>
<linearGradient id="paint1_linear_0_1" x1="58.7183" y1="-2.1791" x2="45.0322" y2="9.94993" gradientUnits="userSpaceOnUse">
<stop stop-color="#BB7239"/>
<stop offset="0.23" stop-color="#FCEEAE"/>
<stop offset="0.52" stop-color="#E09E5B"/>
<stop offset="0.75" stop-color="#FCE9A4"/>
<stop offset="0.83" stop-color="#F1D693"/>
<stop offset="0.92" stop-color="#E1BD7C"/>
<stop offset="1" stop-color="#D08A4A"/>
</linearGradient>
<linearGradient id="paint2_linear_0_1" x1="53.9653" y1="-7.5393" x2="40.282" y2="4.58974" gradientUnits="userSpaceOnUse">
<stop stop-color="#BB7239"/>
<stop offset="0.23" stop-color="#FCEEAE"/>
<stop offset="0.52" stop-color="#E09E5B"/>
<stop offset="0.75" stop-color="#FCE9A4"/>
<stop offset="0.83" stop-color="#F1D693"/>
<stop offset="0.92" stop-color="#E1BD7C"/>
<stop offset="1" stop-color="#D08A4A"/>
</linearGradient>
<linearGradient id="paint3_linear_0_1" x1="48.7986" y1="-0.557983" x2="51.6688" y2="2.29437" gradientUnits="userSpaceOnUse">
<stop stop-color="#BB7239"/>
<stop offset="0.23" stop-color="#FCEEAE"/>
<stop offset="0.52" stop-color="#E09E5B"/>
<stop offset="0.75" stop-color="#FCE9A4"/>
<stop offset="0.83" stop-color="#F1D693"/>
<stop offset="0.92" stop-color="#E1BD7C"/>
<stop offset="1" stop-color="#D08A4A"/>
</linearGradient>
<linearGradient id="paint4_linear_0_1" x1="17.8769" y1="-8.48299" x2="26.1014" y2="1.65989" gradientUnits="userSpaceOnUse">
<stop stop-color="#BB7239"/>
<stop offset="0.23" stop-color="#FCEEAE"/>
<stop offset="0.52" stop-color="#E09E5B"/>
<stop offset="0.75" stop-color="#FCE9A4"/>
<stop offset="0.83" stop-color="#F1D693"/>
<stop offset="0.92" stop-color="#E1BD7C"/>
<stop offset="1" stop-color="#D08A4A"/>
</linearGradient>
<linearGradient id="paint5_linear_0_1" x1="4.79299" y1="2.59273" x2="16.0444" y2="16.4674" gradientUnits="userSpaceOnUse">
<stop stop-color="#BB7239"/>
<stop offset="0.23" stop-color="#FCEEAE"/>
<stop offset="0.52" stop-color="#E09E5B"/>
<stop offset="0.75" stop-color="#FCE9A4"/>
<stop offset="0.83" stop-color="#F1D693"/>
<stop offset="0.92" stop-color="#E1BD7C"/>
<stop offset="1" stop-color="#D08A4A"/>
</linearGradient>
<linearGradient id="paint6_linear_0_1" x1="93.6039" y1="2.59809" x2="79.6538" y2="15.028" gradientUnits="userSpaceOnUse">
<stop stop-color="#BB7239"/>
<stop offset="0.23" stop-color="#FCEEAE"/>
<stop offset="0.52" stop-color="#E09E5B"/>
<stop offset="0.75" stop-color="#FCE9A4"/>
<stop offset="0.83" stop-color="#F1D693"/>
<stop offset="0.92" stop-color="#E1BD7C"/>
<stop offset="1" stop-color="#D08A4A"/>
</linearGradient>
<linearGradient id="paint7_linear_0_1" x1="59.8606" y1="-8.54412" x2="37.95" y2="10.8761" gradientUnits="userSpaceOnUse">
<stop stop-color="#BB7239"/>
<stop offset="0.23" stop-color="#FCEEAE"/>
<stop offset="0.52" stop-color="#E09E5B"/>
<stop offset="0.75" stop-color="#FCE9A4"/>
<stop offset="0.83" stop-color="#F1D693"/>
<stop offset="0.92" stop-color="#E1BD7C"/>
<stop offset="1" stop-color="#D08A4A"/>
</linearGradient>
</defs>
</svg>
